# xmcd
#
# Track frame offsets:
#	300
#	16305
#	33067
#	46969
#	66065
#	86846
#	100969
#	118121
#	135351
#	153462
#	168911
#	186916
#	204215
#	220448
#	235026
#	252827
#	268983
#	287045
#	298229
#	314831
#
# Disc length: 4428 seconds
#
# Revision: 1
# Processed by: cddbd v1.5.2PL0 Copyright (c) Steve Scherf et al.
# Submitted via: audiograbber 1.83.01
#
DISCID=2b114814
DTITLE=Various Artist - Guy Country II
DYEAR=1900
DGENRE=Karaoke
TTITLE0=Kenny Chesney - No Shoes No Shirt No Problem
TTITLE1=Blake Shelton - Ol' Red
TTITLE2=Trick Pony - On A Mission
TTITLE3=Tim McGraw - Red Ragtop
TTITLE4=Kenny Chesney - She Thinks My Tractor Sexy
TTITLE5=George Strait - She'll Leave You With A Smile
TTITLE6=Keith Urban - Somebody Like You
TTITLE7=Travis Tritt - Strong Enough to Be Your Man
TTITLE8=Blake Shelton - The Baby
TTITLE9=Kenny Chesney - The Good Stuff
TTITLE10=Joe Nicholos - The Impossible
TTITLE11=Gary Allen - The One
TTITLE12=Rascal Flatts - These Days
TTITLE13=Andy Griggs - Tonight I want to be Your Man
TTITLE14=Tim McGraw - Unbroken
TTITLE15=Toby Keith - Who's Your Daddy
TTITLE16=Alan Jackson - Work In Progress
TTITLE17=Toby Keith - You Ain't Much Fun
TTITLE18=Arron Lines - You Can't Hide Beautiful
TTITLE19=Kenny Chesney - You Had Me from Hello
EXTD=
EXTT0=
EXTT1=
EXTT2=
EXTT3=
EXTT4=
EXTT5=
EXTT6=
EXTT7=
EXTT8=
EXTT9=
EXTT10=
EXTT11=
EXTT12=
EXTT13=
EXTT14=
EXTT15=
EXTT16=
EXTT17=
EXTT18=
EXTT19=
PLAYORDER=
